<?xml version="1.0" encoding="UTF-8"?>
<svg xmlns="http://www.w3.org/2000/svg" width="426" height="396" viewBox="0 0 426 396" role="img" aria-label="Svart paragraftecken">
  <path d="M210 348.15 L196 348.3 L181 346.37 L172 344.19 L166 342.07 L157 338.26 L155.5 337 L155.5 308 L156 306.6 L169 313.35 L180 317.35 L187 319.18 L193 320.25 L204 321.04 L213 320.42 L219 319.14 L224 317.08 L230 313.24 L232.27 311 L235.27 307 L237.22 303 L238.4 299 L238.67 294 L238.46 290 L237.33 285 L235 280.4 L231.34 276 L225 270.89 L219 266.9 L191 251.21 L176.15 241 L168.5 234 L162.61 227 L158.67 221 L154.8 213 L152.59 206 L151.84 202 L151.17 192 L151.74 183 L152.73 178 L154.61 172 L158 165.03 L163 158.11 L167 153.87 L172 149.72 L179.18 145 L178.89 144 L171.75 137 L167.9 132 L164.42 126 L162.71 122 L160.6 115 L159.57 109 L159.16 101 L159.54 94 L161.57 84 L163.92 78 L167.89 71 L172.62 65 L177 60.62 L185 54.67 L192 50.82 L197 48.8 L209 45.65 L218 44.53 L238 44.75 L246 45.82 L255 47.74 L264 50.71 L268.39 53 L268.5 83 L268 83.5 L259 78.64 L252 75.85 L240 72.72 L231 71.6 L221 71.52 L217 71.8 L209 73.61 L204 75.74 L201 77.72 L197.66 81 L194.92 85 L192.79 91 L192.03 96 L191.93 100 L192.71 106 L194 109.92 L196.67 115 L200.74 120 L205.44 124 L210 127.24 L220 133.16 L245 145.83 L253 150.61 L261.63 157 L269 164.03 L272.36 168 L276.28 174 L280.41 183 L282.38 191 L282.87 196 L283.13 200 L282.54 209 L281.42 216 L279.22 223 L274.29 233 L267 242.81 L260.68 249 L254.51 254 L254.84 255 L258.23 258 L261.67 262 L265.29 267 L268.25 273 L270.48 280 L271.43 286 L271.31 297 L269.32 307 L266.17 315 L261.19 323 L257 327.82 L251 333.22 L242 339.18 L236 342.13 L227 345.22 L217 347.39 L210 348.15 Z M233.5 237 L237.22 234 L243.27 227 L246.27 222 L248.32 217 L249.4 213 L250.4 204 L250.18 200 L248.23 192 L246.38 188 L243 183.2 L240 179.85 L234 174.9 L226 169.8 L220 166.59 L210 161.67 L203 158.82 L198 161.78 L192 167.06 L188.74 171 L185.69 177 L183.73 185 L183.51 190 L183.87 195 L185.81 202 L187.76 206 L192 211.85 L195.05 215 L201.16 220 L216 229.15 L233 237.36 L233.5 237 Z" fill="#000000" fill-rule="evenodd"/>
</svg>
